<svg xmlns="http://www.w3.org/2000/svg" xmlns:xlink="http://www.w3.org/1999/xlink" width="288.001" height="275" viewBox="0 0 288.001 275"><defs><style>.a{fill:#97afb9;}.b{clip-path:url(#a);}.c{clip-path:url(#b);}</style><clipPath id="a"><rect class="a" width="288.001" height="275" transform="translate(21888 1324)"/></clipPath><clipPath id="b"><rect class="a" width="288.001" height="288" transform="translate(0)"/></clipPath></defs><g class="b" transform="translate(-21888 -1324)"><g class="c" transform="translate(21888 1319)"><path class="a" d="M-9.994-13.133a1.278,1.278,0,0,0,1.278-1.278,1.278,1.278,0,0,0-1.278-1.278,1.278,1.278,0,0,0-1.277,1.278A1.278,1.278,0,0,0-9.994-13.133Z"/><path class="a" d="M4.406-13.133a1.279,1.279,0,0,0,1.278-1.278,1.278,1.278,0,0,0-1.278-1.278,1.278,1.278,0,0,0-1.278,1.278A1.278,1.278,0,0,0,4.406-13.133Z"/><path class="a" d="M18.806-13.133a1.278,1.278,0,0,0,1.278-1.278,1.278,1.278,0,0,0-1.278-1.278,1.278,1.278,0,0,0-1.278,1.278A1.279,1.279,0,0,0,18.806-13.133Z"/><circle class="a" cx="1.278" cy="1.278" r="1.278" transform="translate(31.928 -15.689)"/><path class="a" d="M47.606-13.133a1.278,1.278,0,0,0,1.278-1.278,1.278,1.278,0,0,0-1.278-1.278,1.278,1.278,0,0,0-1.278,1.278A1.278,1.278,0,0,0,47.606-13.133Z"/><path class="a" d="M62.006-13.133a1.278,1.278,0,0,0,1.278-1.278,1.278,1.278,0,0,0-1.278-1.278,1.278,1.278,0,0,0-1.277,1.278A1.278,1.278,0,0,0,62.006-13.133Z"/><path class="a" d="M76.406-13.133a1.279,1.279,0,0,0,1.278-1.278,1.278,1.278,0,0,0-1.278-1.278,1.278,1.278,0,0,0-1.278,1.278A1.278,1.278,0,0,0,76.406-13.133Z"/><path class="a" d="M90.806-13.133a1.278,1.278,0,0,0,1.278-1.278,1.278,1.278,0,0,0-1.278-1.278,1.278,1.278,0,0,0-1.278,1.278A1.279,1.279,0,0,0,90.806-13.133Z"/><circle class="a" cx="1.278" cy="1.278" r="1.278" transform="translate(103.928 -15.689)"/><path class="a" d="M119.606-13.133a1.278,1.278,0,0,0,1.278-1.278,1.278,1.278,0,0,0-1.278-1.278,1.278,1.278,0,0,0-1.278,1.278A1.278,1.278,0,0,0,119.606-13.133Z"/><path class="a" d="M134.006-13.133a1.278,1.278,0,0,0,1.278-1.278,1.278,1.278,0,0,0-1.278-1.278,1.278,1.278,0,0,0-1.277,1.278A1.278,1.278,0,0,0,134.006-13.133Z"/><path class="a" d="M148.406-13.133a1.279,1.279,0,0,0,1.278-1.278,1.278,1.278,0,0,0-1.278-1.278,1.278,1.278,0,0,0-1.278,1.278A1.278,1.278,0,0,0,148.406-13.133Z"/><path class="a" d="M162.806-13.133a1.278,1.278,0,0,0,1.278-1.278,1.278,1.278,0,0,0-1.278-1.278,1.278,1.278,0,0,0-1.278,1.278A1.279,1.279,0,0,0,162.806-13.133Z"/><circle class="a" cx="1.278" cy="1.278" r="1.278" transform="translate(175.928 -15.689)"/><path class="a" d="M191.606-13.133a1.278,1.278,0,0,0,1.278-1.278,1.278,1.278,0,0,0-1.278-1.278,1.278,1.278,0,0,0-1.278,1.278A1.278,1.278,0,0,0,191.606-13.133Z"/><path class="a" d="M206.006-13.133a1.278,1.278,0,0,0,1.278-1.278,1.278,1.278,0,0,0-1.278-1.278,1.278,1.278,0,0,0-1.277,1.278A1.278,1.278,0,0,0,206.006-13.133Z"/><path class="a" d="M220.406-13.133a1.279,1.279,0,0,0,1.278-1.278,1.278,1.278,0,0,0-1.278-1.278,1.278,1.278,0,0,0-1.278,1.278A1.278,1.278,0,0,0,220.406-13.133Z"/><path class="a" d="M234.806-13.133a1.278,1.278,0,0,0,1.278-1.278,1.278,1.278,0,0,0-1.278-1.278,1.278,1.278,0,0,0-1.278,1.278A1.279,1.279,0,0,0,234.806-13.133Z"/><circle class="a" cx="1.278" cy="1.278" r="1.278" transform="translate(247.928 -15.689)"/><path class="a" d="M263.606-13.133a1.278,1.278,0,0,0,1.278-1.278,1.278,1.278,0,0,0-1.278-1.278,1.278,1.278,0,0,0-1.278,1.278A1.278,1.278,0,0,0,263.606-13.133Z"/><path class="a" d="M278.006-13.133a1.278,1.278,0,0,0,1.278-1.278,1.278,1.278,0,0,0-1.278-1.278,1.278,1.278,0,0,0-1.277,1.278A1.278,1.278,0,0,0,278.006-13.133Z"/><path class="a" d="M292.406-13.133a1.279,1.279,0,0,0,1.278-1.278,1.278,1.278,0,0,0-1.278-1.278,1.278,1.278,0,0,0-1.278,1.278A1.278,1.278,0,0,0,292.406-13.133Z"/><path class="a" d="M-17.194,1.267A1.278,1.278,0,0,0-15.916-.011a1.278,1.278,0,0,0-1.278-1.278A1.278,1.278,0,0,0-18.472-.011,1.279,1.279,0,0,0-17.194,1.267Z"/><circle class="a" cx="1.278" cy="1.278" r="1.278" transform="translate(-4.072 -1.289)"/><path class="a" d="M11.606,1.267A1.278,1.278,0,0,0,12.884-.011a1.278,1.278,0,0,0-1.278-1.278A1.278,1.278,0,0,0,10.328-.011,1.278,1.278,0,0,0,11.606,1.267Z"/><path class="a" d="M26.006,1.267A1.278,1.278,0,0,0,27.284-.011a1.278,1.278,0,0,0-1.278-1.278A1.278,1.278,0,0,0,24.729-.011,1.278,1.278,0,0,0,26.006,1.267Z"/><path class="a" d="M40.406,1.267A1.279,1.279,0,0,0,41.684-.011a1.278,1.278,0,0,0-1.278-1.278A1.278,1.278,0,0,0,39.128-.011,1.278,1.278,0,0,0,40.406,1.267Z"/><path class="a" d="M54.806,1.267A1.278,1.278,0,0,0,56.084-.011a1.278,1.278,0,0,0-1.278-1.278A1.278,1.278,0,0,0,53.528-.011,1.279,1.279,0,0,0,54.806,1.267Z"/><circle class="a" cx="1.278" cy="1.278" r="1.278" transform="translate(67.928 -1.289)"/><path class="a" d="M83.606,1.267A1.278,1.278,0,0,0,84.884-.011a1.278,1.278,0,0,0-1.278-1.278A1.278,1.278,0,0,0,82.328-.011,1.278,1.278,0,0,0,83.606,1.267Z"/><path class="a" d="M98.006,1.267A1.278,1.278,0,0,0,99.284-.011a1.278,1.278,0,0,0-1.278-1.278A1.278,1.278,0,0,0,96.729-.011,1.278,1.278,0,0,0,98.006,1.267Z"/><path class="a" d="M112.406,1.267a1.279,1.279,0,0,0,1.278-1.278,1.278,1.278,0,0,0-1.278-1.278,1.278,1.278,0,0,0-1.278,1.278A1.278,1.278,0,0,0,112.406,1.267Z"/><path class="a" d="M126.806,1.267a1.278,1.278,0,0,0,1.278-1.278,1.278,1.278,0,0,0-1.278-1.278,1.278,1.278,0,0,0-1.278,1.278A1.279,1.279,0,0,0,126.806,1.267Z"/><circle class="a" cx="1.278" cy="1.278" r="1.278" transform="translate(139.928 -1.289)"/><path class="a" d="M155.606,1.267a1.278,1.278,0,0,0,1.278-1.278,1.278,1.278,0,0,0-1.278-1.278,1.278,1.278,0,0,0-1.278,1.278A1.278,1.278,0,0,0,155.606,1.267Z"/><path class="a" d="M170.006,1.267a1.278,1.278,0,0,0,1.278-1.278,1.278,1.278,0,0,0-1.278-1.278,1.278,1.278,0,0,0-1.277,1.278A1.278,1.278,0,0,0,170.006,1.267Z"/><path class="a" d="M184.406,1.267a1.279,1.279,0,0,0,1.278-1.278,1.278,1.278,0,0,0-1.278-1.278,1.278,1.278,0,0,0-1.278,1.278A1.278,1.278,0,0,0,184.406,1.267Z"/><path class="a" d="M198.806,1.267a1.278,1.278,0,0,0,1.278-1.278,1.278,1.278,0,0,0-1.278-1.278,1.278,1.278,0,0,0-1.278,1.278A1.279,1.279,0,0,0,198.806,1.267Z"/><circle class="a" cx="1.278" cy="1.278" r="1.278" transform="translate(211.928 -1.289)"/><path class="a" d="M227.606,1.267a1.278,1.278,0,0,0,1.278-1.278,1.278,1.278,0,0,0-1.278-1.278,1.278,1.278,0,0,0-1.278,1.278A1.278,1.278,0,0,0,227.606,1.267Z"/><path class="a" d="M242.006,1.267a1.278,1.278,0,0,0,1.278-1.278,1.278,1.278,0,0,0-1.278-1.278,1.278,1.278,0,0,0-1.277,1.278A1.278,1.278,0,0,0,242.006,1.267Z"/><path class="a" d="M256.406,1.267a1.279,1.279,0,0,0,1.278-1.278,1.278,1.278,0,0,0-1.278-1.278,1.278,1.278,0,0,0-1.278,1.278A1.278,1.278,0,0,0,256.406,1.267Z"/><path class="a" d="M270.806,1.267a1.278,1.278,0,0,0,1.278-1.278,1.278,1.278,0,0,0-1.278-1.278,1.278,1.278,0,0,0-1.278,1.278A1.279,1.279,0,0,0,270.806,1.267Z"/><circle class="a" cx="1.278" cy="1.278" r="1.278" transform="translate(283.928 -1.289)"/><path class="a" d="M-9.994,15.667a1.278,1.278,0,0,0,1.278-1.278,1.278,1.278,0,0,0-1.278-1.278,1.278,1.278,0,0,0-1.277,1.278A1.278,1.278,0,0,0-9.994,15.667Z"/><path class="a" d="M4.406,15.667a1.278,1.278,0,1,0-1.278-1.278A1.279,1.279,0,0,0,4.406,15.667Z"/><path class="a" d="M18.806,15.667a1.278,1.278,0,1,0-1.278-1.278A1.278,1.278,0,0,0,18.806,15.667Z"/><path class="a" d="M33.206,15.667a1.278,1.278,0,1,0-1.278-1.278A1.278,1.278,0,0,0,33.206,15.667Z"/><path class="a" d="M47.606,15.667a1.278,1.278,0,1,0-1.278-1.278A1.278,1.278,0,0,0,47.606,15.667Z"/><path class="a" d="M62.006,15.667a1.278,1.278,0,1,0-1.277-1.278A1.278,1.278,0,0,0,62.006,15.667Z"/><path class="a" d="M76.406,15.667a1.278,1.278,0,1,0-1.278-1.278A1.279,1.279,0,0,0,76.406,15.667Z"/><path class="a" d="M90.806,15.667a1.278,1.278,0,1,0-1.278-1.278A1.278,1.278,0,0,0,90.806,15.667Z"/><path class="a" d="M105.206,15.667a1.278,1.278,0,1,0-1.278-1.278A1.278,1.278,0,0,0,105.206,15.667Z"/><path class="a" d="M119.606,15.667a1.278,1.278,0,1,0-1.278-1.278A1.278,1.278,0,0,0,119.606,15.667Z"/><path class="a" d="M134.006,15.667a1.278,1.278,0,1,0-1.277-1.278A1.278,1.278,0,0,0,134.006,15.667Z"/><path class="a" d="M148.406,15.667a1.278,1.278,0,1,0-1.278-1.278A1.279,1.279,0,0,0,148.406,15.667Z"/><path class="a" d="M162.806,15.667a1.278,1.278,0,1,0-1.278-1.278A1.278,1.278,0,0,0,162.806,15.667Z"/><path class="a" d="M177.206,15.667a1.278,1.278,0,1,0-1.278-1.278A1.278,1.278,0,0,0,177.206,15.667Z"/><path class="a" d="M191.606,15.667a1.278,1.278,0,1,0-1.278-1.278A1.278,1.278,0,0,0,191.606,15.667Z"/><path class="a" d="M206.006,15.667a1.278,1.278,0,1,0-1.277-1.278A1.278,1.278,0,0,0,206.006,15.667Z"/><path class="a" d="M220.406,15.667a1.278,1.278,0,1,0-1.278-1.278A1.279,1.279,0,0,0,220.406,15.667Z"/><path class="a" d="M234.806,15.667a1.278,1.278,0,1,0-1.278-1.278A1.278,1.278,0,0,0,234.806,15.667Z"/><path class="a" d="M249.206,15.667a1.278,1.278,0,1,0-1.278-1.278A1.278,1.278,0,0,0,249.206,15.667Z"/><path class="a" d="M263.606,15.667a1.278,1.278,0,1,0-1.278-1.278A1.278,1.278,0,0,0,263.606,15.667Z"/><path class="a" d="M278.006,15.667a1.278,1.278,0,1,0-1.277-1.278A1.278,1.278,0,0,0,278.006,15.667Z"/><path class="a" d="M292.406,15.667a1.278,1.278,0,1,0-1.278-1.278A1.279,1.279,0,0,0,292.406,15.667Z"/><path class="a" d="M-17.194,30.066a1.277,1.277,0,0,0,1.278-1.277,1.278,1.278,0,0,0-1.278-1.278,1.278,1.278,0,0,0-1.278,1.278A1.278,1.278,0,0,0-17.194,30.066Z"/><path class="a" d="M-2.794,30.066a1.277,1.277,0,0,0,1.278-1.277,1.278,1.278,0,0,0-1.278-1.278,1.278,1.278,0,0,0-1.278,1.278A1.277,1.277,0,0,0-2.794,30.066Z"/><path class="a" d="M11.606,30.066a1.278,1.278,0,1,0-1.278-1.277A1.277,1.277,0,0,0,11.606,30.066Z"/><path class="a" d="M26.006,30.066a1.278,1.278,0,1,0-1.277-1.277A1.277,1.277,0,0,0,26.006,30.066Z"/><path class="a" d="M40.406,30.066a1.278,1.278,0,1,0-1.278-1.277A1.278,1.278,0,0,0,40.406,30.066Z"/><path class="a" d="M54.806,30.066a1.278,1.278,0,1,0-1.278-1.277A1.277,1.277,0,0,0,54.806,30.066Z"/><path class="a" d="M69.206,30.066a1.278,1.278,0,1,0-1.278-1.277A1.277,1.277,0,0,0,69.206,30.066Z"/><path class="a" d="M83.606,30.066a1.278,1.278,0,1,0-1.278-1.277A1.277,1.277,0,0,0,83.606,30.066Z"/><path class="a" d="M98.006,30.066a1.278,1.278,0,1,0-1.277-1.277A1.277,1.277,0,0,0,98.006,30.066Z"/><path class="a" d="M112.406,30.066a1.278,1.278,0,1,0-1.278-1.277A1.278,1.278,0,0,0,112.406,30.066Z"/><path class="a" d="M126.806,30.066a1.278,1.278,0,1,0-1.278-1.277A1.277,1.277,0,0,0,126.806,30.066Z"/><path class="a" d="M141.206,30.066a1.278,1.278,0,1,0-1.278-1.277A1.277,1.277,0,0,0,141.206,30.066Z"/><path class="a" d="M155.606,30.066a1.278,1.278,0,1,0-1.278-1.277A1.277,1.277,0,0,0,155.606,30.066Z"/><path class="a" d="M170.006,30.066a1.278,1.278,0,1,0-1.277-1.277A1.277,1.277,0,0,0,170.006,30.066Z"/><path class="a" d="M184.406,30.066a1.278,1.278,0,1,0-1.278-1.277A1.278,1.278,0,0,0,184.406,30.066Z"/><path class="a" d="M198.806,30.066a1.278,1.278,0,1,0-1.278-1.277A1.277,1.277,0,0,0,198.806,30.066Z"/><path class="a" d="M213.206,30.066a1.278,1.278,0,1,0-1.278-1.277A1.277,1.277,0,0,0,213.206,30.066Z"/><path class="a" d="M227.606,30.066a1.278,1.278,0,1,0-1.278-1.277A1.277,1.277,0,0,0,227.606,30.066Z"/><path class="a" d="M242.006,30.066a1.278,1.278,0,1,0-1.277-1.277A1.277,1.277,0,0,0,242.006,30.066Z"/><path class="a" d="M256.406,30.066a1.278,1.278,0,1,0-1.278-1.277A1.278,1.278,0,0,0,256.406,30.066Z"/><path class="a" d="M270.806,30.066a1.278,1.278,0,1,0-1.278-1.277A1.277,1.277,0,0,0,270.806,30.066Z"/><path class="a" d="M285.206,30.066a1.278,1.278,0,1,0-1.278-1.277A1.277,1.277,0,0,0,285.206,30.066Z"/><path class="a" d="M-9.994,44.466a1.277,1.277,0,0,0,1.278-1.277,1.278,1.278,0,0,0-1.278-1.278,1.278,1.278,0,0,0-1.277,1.278A1.277,1.277,0,0,0-9.994,44.466Z"/><path class="a" d="M4.406,44.466a1.278,1.278,0,1,0-1.278-1.277A1.278,1.278,0,0,0,4.406,44.466Z"/><path class="a" d="M18.806,44.466a1.278,1.278,0,1,0-1.278-1.277A1.277,1.277,0,0,0,18.806,44.466Z"/><path class="a" d="M33.206,44.466a1.278,1.278,0,1,0-1.278-1.277A1.277,1.277,0,0,0,33.206,44.466Z"/><path class="a" d="M47.606,44.466a1.278,1.278,0,1,0-1.278-1.277A1.277,1.277,0,0,0,47.606,44.466Z"/><path class="a" d="M62.006,44.466a1.278,1.278,0,1,0-1.277-1.277A1.277,1.277,0,0,0,62.006,44.466Z"/><path class="a" d="M76.406,44.466a1.278,1.278,0,1,0-1.278-1.277A1.278,1.278,0,0,0,76.406,44.466Z"/><path class="a" d="M90.806,44.466a1.278,1.278,0,1,0-1.278-1.277A1.277,1.277,0,0,0,90.806,44.466Z"/><path class="a" d="M105.206,44.466a1.278,1.278,0,1,0-1.278-1.277A1.277,1.277,0,0,0,105.206,44.466Z"/><path class="a" d="M119.606,44.466a1.278,1.278,0,1,0-1.278-1.277A1.277,1.277,0,0,0,119.606,44.466Z"/><path class="a" d="M134.006,44.466a1.278,1.278,0,1,0-1.277-1.277A1.277,1.277,0,0,0,134.006,44.466Z"/><path class="a" d="M148.406,44.466a1.278,1.278,0,1,0-1.278-1.277A1.278,1.278,0,0,0,148.406,44.466Z"/><path class="a" d="M162.806,44.466a1.278,1.278,0,1,0-1.278-1.277A1.277,1.277,0,0,0,162.806,44.466Z"/><path class="a" d="M177.206,44.466a1.278,1.278,0,1,0-1.278-1.277A1.277,1.277,0,0,0,177.206,44.466Z"/><path class="a" d="M191.606,44.466a1.278,1.278,0,1,0-1.278-1.277A1.277,1.277,0,0,0,191.606,44.466Z"/><path class="a" d="M206.006,44.466a1.278,1.278,0,1,0-1.277-1.277A1.277,1.277,0,0,0,206.006,44.466Z"/><path class="a" d="M220.406,44.466a1.278,1.278,0,1,0-1.278-1.277A1.278,1.278,0,0,0,220.406,44.466Z"/><path class="a" d="M234.806,44.466a1.278,1.278,0,1,0-1.278-1.277A1.277,1.277,0,0,0,234.806,44.466Z"/><path class="a" d="M249.206,44.466a1.278,1.278,0,1,0-1.278-1.277A1.277,1.277,0,0,0,249.206,44.466Z"/><path class="a" d="M263.606,44.466a1.278,1.278,0,1,0-1.278-1.277A1.277,1.277,0,0,0,263.606,44.466Z"/><path class="a" d="M278.006,44.466a1.278,1.278,0,1,0-1.277-1.277A1.277,1.277,0,0,0,278.006,44.466Z"/><path class="a" d="M292.406,44.466a1.278,1.278,0,1,0-1.278-1.277A1.278,1.278,0,0,0,292.406,44.466Z"/><path class="a" d="M-17.194,58.867a1.278,1.278,0,0,0,1.278-1.278,1.278,1.278,0,0,0-1.278-1.278,1.278,1.278,0,0,0-1.278,1.278A1.279,1.279,0,0,0-17.194,58.867Z"/><circle class="a" cx="1.278" cy="1.278" r="1.278" transform="translate(-4.072 56.311)"/><path class="a" d="M11.606,58.867a1.278,1.278,0,1,0-1.278-1.278A1.278,1.278,0,0,0,11.606,58.867Z"/><path class="a" d="M26.006,58.867a1.278,1.278,0,1,0-1.277-1.278A1.278,1.278,0,0,0,26.006,58.867Z"/><path class="a" d="M40.406,58.867a1.278,1.278,0,1,0-1.278-1.278A1.279,1.279,0,0,0,40.406,58.867Z"/><path class="a" d="M54.806,58.867a1.278,1.278,0,1,0-1.278-1.278A1.278,1.278,0,0,0,54.806,58.867Z"/><circle class="a" cx="1.278" cy="1.278" r="1.278" transform="translate(67.928 56.311)"/><path class="a" d="M83.606,58.867a1.278,1.278,0,1,0-1.278-1.278A1.278,1.278,0,0,0,83.606,58.867Z"/><path class="a" d="M98.006,58.867a1.278,1.278,0,1,0-1.277-1.278A1.278,1.278,0,0,0,98.006,58.867Z"/><path class="a" d="M112.406,58.867a1.278,1.278,0,1,0-1.278-1.278A1.279,1.279,0,0,0,112.406,58.867Z"/><path class="a" d="M126.806,58.867a1.278,1.278,0,1,0-1.278-1.278A1.278,1.278,0,0,0,126.806,58.867Z"/><circle class="a" cx="1.278" cy="1.278" r="1.278" transform="translate(139.928 56.311)"/><path class="a" d="M155.606,58.867a1.278,1.278,0,1,0-1.278-1.278A1.278,1.278,0,0,0,155.606,58.867Z"/><path class="a" d="M170.006,58.867a1.278,1.278,0,1,0-1.277-1.278A1.278,1.278,0,0,0,170.006,58.867Z"/><path class="a" d="M184.406,58.867a1.278,1.278,0,1,0-1.278-1.278A1.279,1.279,0,0,0,184.406,58.867Z"/><path class="a" d="M198.806,58.867a1.278,1.278,0,1,0-1.278-1.278A1.278,1.278,0,0,0,198.806,58.867Z"/><circle class="a" cx="1.278" cy="1.278" r="1.278" transform="translate(211.928 56.311)"/><path class="a" d="M227.606,58.867a1.278,1.278,0,1,0-1.278-1.278A1.278,1.278,0,0,0,227.606,58.867Z"/><path class="a" d="M242.006,58.867a1.278,1.278,0,1,0-1.277-1.278A1.278,1.278,0,0,0,242.006,58.867Z"/><path class="a" d="M256.406,58.867a1.278,1.278,0,1,0-1.278-1.278A1.279,1.279,0,0,0,256.406,58.867Z"/><path class="a" d="M270.806,58.867a1.278,1.278,0,1,0-1.278-1.278A1.278,1.278,0,0,0,270.806,58.867Z"/><circle class="a" cx="1.278" cy="1.278" r="1.278" transform="translate(283.928 56.311)"/><path class="a" d="M-9.994,73.267a1.278,1.278,0,0,0,1.278-1.278,1.278,1.278,0,0,0-1.278-1.278,1.278,1.278,0,0,0-1.277,1.278A1.278,1.278,0,0,0-9.994,73.267Z"/><path class="a" d="M4.406,73.267a1.278,1.278,0,1,0-1.278-1.278A1.279,1.279,0,0,0,4.406,73.267Z"/><path class="a" d="M18.806,73.267a1.278,1.278,0,1,0-1.278-1.278A1.278,1.278,0,0,0,18.806,73.267Z"/><circle class="a" cx="1.278" cy="1.278" r="1.278" transform="translate(31.928 70.711)"/><path class="a" d="M47.606,73.267a1.278,1.278,0,1,0-1.278-1.278A1.278,1.278,0,0,0,47.606,73.267Z"/><path class="a" d="M62.006,73.267a1.278,1.278,0,1,0-1.277-1.278A1.278,1.278,0,0,0,62.006,73.267Z"/><path class="a" d="M76.406,73.267a1.278,1.278,0,1,0-1.278-1.278A1.279,1.279,0,0,0,76.406,73.267Z"/><path class="a" d="M90.806,73.267a1.278,1.278,0,1,0-1.278-1.278A1.278,1.278,0,0,0,90.806,73.267Z"/><circle class="a" cx="1.278" cy="1.278" r="1.278" transform="translate(103.928 70.711)"/><path class="a" d="M119.606,73.267a1.278,1.278,0,1,0-1.278-1.278A1.278,1.278,0,0,0,119.606,73.267Z"/><path class="a" d="M134.006,73.267a1.278,1.278,0,1,0-1.277-1.278A1.278,1.278,0,0,0,134.006,73.267Z"/><path class="a" d="M148.406,73.267a1.278,1.278,0,1,0-1.278-1.278A1.279,1.279,0,0,0,148.406,73.267Z"/><path class="a" d="M162.806,73.267a1.278,1.278,0,1,0-1.278-1.278A1.278,1.278,0,0,0,162.806,73.267Z"/><circle class="a" cx="1.278" cy="1.278" r="1.278" transform="translate(175.928 70.711)"/><path class="a" d="M191.606,73.267a1.278,1.278,0,1,0-1.278-1.278A1.278,1.278,0,0,0,191.606,73.267Z"/><path class="a" d="M206.006,73.267a1.278,1.278,0,1,0-1.277-1.278A1.278,1.278,0,0,0,206.006,73.267Z"/><path class="a" d="M220.406,73.267a1.278,1.278,0,1,0-1.278-1.278A1.279,1.279,0,0,0,220.406,73.267Z"/><path class="a" d="M234.806,73.267a1.278,1.278,0,1,0-1.278-1.278A1.278,1.278,0,0,0,234.806,73.267Z"/><circle class="a" cx="1.278" cy="1.278" r="1.278" transform="translate(247.928 70.711)"/><path class="a" d="M263.606,73.267a1.278,1.278,0,1,0-1.278-1.278A1.278,1.278,0,0,0,263.606,73.267Z"/><path class="a" d="M278.006,73.267a1.278,1.278,0,1,0-1.277-1.278A1.278,1.278,0,0,0,278.006,73.267Z"/><path class="a" d="M292.406,73.267a1.278,1.278,0,1,0-1.278-1.278A1.279,1.279,0,0,0,292.406,73.267Z"/><path class="a" d="M-17.194,87.667a1.278,1.278,0,0,0,1.278-1.278,1.278,1.278,0,0,0-1.278-1.278,1.278,1.278,0,0,0-1.278,1.278A1.279,1.279,0,0,0-17.194,87.667Z"/><path class="a" d="M-2.794,87.667a1.278,1.278,0,0,0,1.278-1.278,1.278,1.278,0,0,0-1.278-1.278,1.278,1.278,0,0,0-1.278,1.278A1.278,1.278,0,0,0-2.794,87.667Z"/><path class="a" d="M11.606,87.667a1.278,1.278,0,1,0-1.278-1.278A1.278,1.278,0,0,0,11.606,87.667Z"/><path class="a" d="M26.006,87.667a1.278,1.278,0,1,0-1.277-1.278A1.278,1.278,0,0,0,26.006,87.667Z"/><path class="a" d="M40.406,87.667a1.278,1.278,0,1,0-1.278-1.278A1.279,1.279,0,0,0,40.406,87.667Z"/><path class="a" d="M54.806,87.667a1.278,1.278,0,1,0-1.278-1.278A1.278,1.278,0,0,0,54.806,87.667Z"/><path class="a" d="M69.206,87.667a1.278,1.278,0,1,0-1.278-1.278A1.278,1.278,0,0,0,69.206,87.667Z"/><path class="a" d="M83.606,87.667a1.278,1.278,0,1,0-1.278-1.278A1.278,1.278,0,0,0,83.606,87.667Z"/><path class="a" d="M98.006,87.667a1.278,1.278,0,1,0-1.277-1.278A1.278,1.278,0,0,0,98.006,87.667Z"/><path class="a" d="M112.406,87.667a1.278,1.278,0,1,0-1.278-1.278A1.279,1.279,0,0,0,112.406,87.667Z"/><path class="a" d="M126.806,87.667a1.278,1.278,0,1,0-1.278-1.278A1.278,1.278,0,0,0,126.806,87.667Z"/><path class="a" d="M141.206,87.667a1.278,1.278,0,1,0-1.278-1.278A1.278,1.278,0,0,0,141.206,87.667Z"/><path class="a" d="M155.606,87.667a1.278,1.278,0,1,0-1.278-1.278A1.278,1.278,0,0,0,155.606,87.667Z"/><path class="a" d="M170.006,87.667a1.278,1.278,0,1,0-1.277-1.278A1.278,1.278,0,0,0,170.006,87.667Z"/><path class="a" d="M184.406,87.667a1.278,1.278,0,1,0-1.278-1.278A1.279,1.279,0,0,0,184.406,87.667Z"/><path class="a" d="M198.806,87.667a1.278,1.278,0,1,0-1.278-1.278A1.278,1.278,0,0,0,198.806,87.667Z"/><path class="a" d="M213.206,87.667a1.278,1.278,0,1,0-1.278-1.278A1.278,1.278,0,0,0,213.206,87.667Z"/><path class="a" d="M227.606,87.667a1.278,1.278,0,1,0-1.278-1.278A1.278,1.278,0,0,0,227.606,87.667Z"/><path class="a" d="M242.006,87.667a1.278,1.278,0,1,0-1.277-1.278A1.278,1.278,0,0,0,242.006,87.667Z"/><path class="a" d="M256.406,87.667a1.278,1.278,0,1,0-1.278-1.278A1.279,1.279,0,0,0,256.406,87.667Z"/><path class="a" d="M270.806,87.667a1.278,1.278,0,1,0-1.278-1.278A1.278,1.278,0,0,0,270.806,87.667Z"/><path class="a" d="M285.206,87.667a1.278,1.278,0,1,0-1.278-1.278A1.278,1.278,0,0,0,285.206,87.667Z"/><path class="a" d="M-9.994,102.066a1.277,1.277,0,0,0,1.278-1.277,1.278,1.278,0,0,0-1.278-1.278,1.278,1.278,0,0,0-1.277,1.278A1.277,1.277,0,0,0-9.994,102.066Z"/><path class="a" d="M4.406,102.066a1.278,1.278,0,1,0-1.278-1.277A1.278,1.278,0,0,0,4.406,102.066Z"/><path class="a" d="M18.806,102.066a1.278,1.278,0,1,0-1.278-1.277A1.277,1.277,0,0,0,18.806,102.066Z"/><path class="a" d="M33.206,102.066a1.278,1.278,0,1,0-1.278-1.277A1.277,1.277,0,0,0,33.206,102.066Z"/><path class="a" d="M47.606,102.066a1.278,1.278,0,1,0-1.278-1.277A1.277,1.277,0,0,0,47.606,102.066Z"/><path class="a" d="M62.006,102.066a1.278,1.278,0,1,0-1.277-1.277A1.277,1.277,0,0,0,62.006,102.066Z"/><path class="a" d="M76.406,102.066a1.278,1.278,0,1,0-1.278-1.277A1.278,1.278,0,0,0,76.406,102.066Z"/><path class="a" d="M90.806,102.066a1.278,1.278,0,1,0-1.278-1.277A1.277,1.277,0,0,0,90.806,102.066Z"/><path class="a" d="M105.206,102.066a1.278,1.278,0,1,0-1.278-1.277A1.277,1.277,0,0,0,105.206,102.066Z"/><path class="a" d="M119.606,102.066a1.278,1.278,0,1,0-1.278-1.277A1.277,1.277,0,0,0,119.606,102.066Z"/><path class="a" d="M134.006,102.066a1.278,1.278,0,1,0-1.277-1.277A1.277,1.277,0,0,0,134.006,102.066Z"/><path class="a" d="M148.406,102.066a1.278,1.278,0,1,0-1.278-1.277A1.278,1.278,0,0,0,148.406,102.066Z"/><path class="a" d="M162.806,102.066a1.278,1.278,0,1,0-1.278-1.277A1.277,1.277,0,0,0,162.806,102.066Z"/><path class="a" d="M177.206,102.066a1.278,1.278,0,1,0-1.278-1.277A1.277,1.277,0,0,0,177.206,102.066Z"/><path class="a" d="M191.606,102.066a1.278,1.278,0,1,0-1.278-1.277A1.277,1.277,0,0,0,191.606,102.066Z"/><path class="a" d="M206.006,102.066a1.278,1.278,0,1,0-1.277-1.277A1.277,1.277,0,0,0,206.006,102.066Z"/><path class="a" d="M220.406,102.066a1.278,1.278,0,1,0-1.278-1.277A1.278,1.278,0,0,0,220.406,102.066Z"/><path class="a" d="M234.806,102.066a1.278,1.278,0,1,0-1.278-1.277A1.277,1.277,0,0,0,234.806,102.066Z"/><path class="a" d="M249.206,102.066a1.278,1.278,0,1,0-1.278-1.277A1.277,1.277,0,0,0,249.206,102.066Z"/><path class="a" d="M263.606,102.066a1.278,1.278,0,1,0-1.278-1.277A1.277,1.277,0,0,0,263.606,102.066Z"/><path class="a" d="M278.006,102.066a1.278,1.278,0,1,0-1.277-1.277A1.277,1.277,0,0,0,278.006,102.066Z"/><path class="a" d="M292.406,102.066a1.278,1.278,0,1,0-1.278-1.277A1.278,1.278,0,0,0,292.406,102.066Z"/><path class="a" d="M-17.194,116.466a1.277,1.277,0,0,0,1.278-1.277,1.278,1.278,0,0,0-1.278-1.278,1.278,1.278,0,0,0-1.278,1.278A1.278,1.278,0,0,0-17.194,116.466Z"/><path class="a" d="M-2.794,116.466a1.277,1.277,0,0,0,1.278-1.277,1.278,1.278,0,0,0-1.278-1.278,1.278,1.278,0,0,0-1.278,1.278A1.277,1.277,0,0,0-2.794,116.466Z"/><path class="a" d="M11.606,116.466a1.278,1.278,0,1,0-1.278-1.277A1.277,1.277,0,0,0,11.606,116.466Z"/><path class="a" d="M26.006,116.466a1.278,1.278,0,1,0-1.277-1.277A1.277,1.277,0,0,0,26.006,116.466Z"/><path class="a" d="M40.406,116.466a1.278,1.278,0,1,0-1.278-1.277A1.278,1.278,0,0,0,40.406,116.466Z"/><path class="a" d="M54.806,116.466a1.278,1.278,0,1,0-1.278-1.277A1.277,1.277,0,0,0,54.806,116.466Z"/><path class="a" d="M69.206,116.466a1.278,1.278,0,1,0-1.278-1.277A1.277,1.277,0,0,0,69.206,116.466Z"/><path class="a" d="M83.606,116.466a1.278,1.278,0,1,0-1.278-1.277A1.277,1.277,0,0,0,83.606,116.466Z"/><path class="a" d="M98.006,116.466a1.278,1.278,0,1,0-1.277-1.277A1.277,1.277,0,0,0,98.006,116.466Z"/><path class="a" d="M112.406,116.466a1.278,1.278,0,1,0-1.278-1.277A1.278,1.278,0,0,0,112.406,116.466Z"/><path class="a" d="M126.806,116.466a1.278,1.278,0,1,0-1.278-1.277A1.277,1.277,0,0,0,126.806,116.466Z"/><path class="a" d="M141.206,116.466a1.278,1.278,0,1,0-1.278-1.277A1.277,1.277,0,0,0,141.206,116.466Z"/><path class="a" d="M155.606,116.466a1.278,1.278,0,1,0-1.278-1.277A1.277,1.277,0,0,0,155.606,116.466Z"/><path class="a" d="M170.006,116.466a1.278,1.278,0,1,0-1.277-1.277A1.277,1.277,0,0,0,170.006,116.466Z"/><path class="a" d="M184.406,116.466a1.278,1.278,0,1,0-1.278-1.277A1.278,1.278,0,0,0,184.406,116.466Z"/><path class="a" d="M198.806,116.466a1.278,1.278,0,1,0-1.278-1.277A1.277,1.277,0,0,0,198.806,116.466Z"/><path class="a" d="M213.206,116.466a1.278,1.278,0,1,0-1.278-1.277A1.277,1.277,0,0,0,213.206,116.466Z"/><path class="a" d="M227.606,116.466a1.278,1.278,0,1,0-1.278-1.277A1.277,1.277,0,0,0,227.606,116.466Z"/><path class="a" d="M242.006,116.466a1.278,1.278,0,1,0-1.277-1.277A1.277,1.277,0,0,0,242.006,116.466Z"/><path class="a" d="M256.406,116.466a1.278,1.278,0,1,0-1.278-1.277A1.278,1.278,0,0,0,256.406,116.466Z"/><path class="a" d="M270.806,116.466a1.278,1.278,0,1,0-1.278-1.277A1.277,1.277,0,0,0,270.806,116.466Z"/><path class="a" d="M285.206,116.466a1.278,1.278,0,1,0-1.278-1.277A1.277,1.277,0,0,0,285.206,116.466Z"/><path class="a" d="M-9.994,130.867a1.278,1.278,0,0,0,1.278-1.278,1.278,1.278,0,0,0-1.278-1.278,1.278,1.278,0,0,0-1.277,1.278A1.278,1.278,0,0,0-9.994,130.867Z"/><path class="a" d="M4.406,130.867a1.278,1.278,0,1,0-1.278-1.278A1.279,1.279,0,0,0,4.406,130.867Z"/><path class="a" d="M18.806,130.867a1.278,1.278,0,1,0-1.278-1.278A1.278,1.278,0,0,0,18.806,130.867Z"/><circle class="a" cx="1.278" cy="1.278" r="1.278" transform="translate(31.928 128.311)"/><path class="a" d="M47.606,130.867a1.278,1.278,0,1,0-1.278-1.278A1.278,1.278,0,0,0,47.606,130.867Z"/><path class="a" d="M62.006,130.867a1.278,1.278,0,1,0-1.277-1.278A1.278,1.278,0,0,0,62.006,130.867Z"/><path class="a" d="M76.406,130.867a1.278,1.278,0,1,0-1.278-1.278A1.279,1.279,0,0,0,76.406,130.867Z"/><path class="a" d="M90.806,130.867a1.278,1.278,0,1,0-1.278-1.278A1.278,1.278,0,0,0,90.806,130.867Z"/><circle class="a" cx="1.278" cy="1.278" r="1.278" transform="translate(103.928 128.311)"/><path class="a" d="M119.606,130.867a1.278,1.278,0,1,0-1.278-1.278A1.278,1.278,0,0,0,119.606,130.867Z"/><path class="a" d="M134.006,130.867a1.278,1.278,0,1,0-1.277-1.278A1.278,1.278,0,0,0,134.006,130.867Z"/><path class="a" d="M148.406,130.867a1.278,1.278,0,1,0-1.278-1.278A1.279,1.279,0,0,0,148.406,130.867Z"/><path class="a" d="M162.806,130.867a1.278,1.278,0,1,0-1.278-1.278A1.278,1.278,0,0,0,162.806,130.867Z"/><circle class="a" cx="1.278" cy="1.278" r="1.278" transform="translate(175.928 128.311)"/><path class="a" d="M191.606,130.867a1.278,1.278,0,1,0-1.278-1.278A1.278,1.278,0,0,0,191.606,130.867Z"/><path class="a" d="M206.006,130.867a1.278,1.278,0,1,0-1.277-1.278A1.278,1.278,0,0,0,206.006,130.867Z"/><path class="a" d="M220.406,130.867a1.278,1.278,0,1,0-1.278-1.278A1.279,1.279,0,0,0,220.406,130.867Z"/><path class="a" d="M234.806,130.867a1.278,1.278,0,1,0-1.278-1.278A1.278,1.278,0,0,0,234.806,130.867Z"/><circle class="a" cx="1.278" cy="1.278" r="1.278" transform="translate(247.928 128.311)"/><path class="a" d="M263.606,130.867a1.278,1.278,0,1,0-1.278-1.278A1.278,1.278,0,0,0,263.606,130.867Z"/><path class="a" d="M278.006,130.867a1.278,1.278,0,1,0-1.277-1.278A1.278,1.278,0,0,0,278.006,130.867Z"/><path class="a" d="M292.406,130.867a1.278,1.278,0,1,0-1.278-1.278A1.279,1.279,0,0,0,292.406,130.867Z"/><path class="a" d="M-17.194,145.267a1.278,1.278,0,0,0,1.278-1.278,1.278,1.278,0,0,0-1.278-1.278,1.278,1.278,0,0,0-1.278,1.278A1.279,1.279,0,0,0-17.194,145.267Z"/><circle class="a" cx="1.278" cy="1.278" r="1.278" transform="translate(-4.072 142.711)"/><path class="a" d="M11.606,145.267a1.278,1.278,0,1,0-1.278-1.278A1.278,1.278,0,0,0,11.606,145.267Z"/><path class="a" d="M26.006,145.267a1.278,1.278,0,1,0-1.277-1.278A1.278,1.278,0,0,0,26.006,145.267Z"/><path class="a" d="M40.406,145.267a1.278,1.278,0,1,0-1.278-1.278A1.279,1.279,0,0,0,40.406,145.267Z"/><path class="a" d="M54.806,145.267a1.278,1.278,0,1,0-1.278-1.278A1.278,1.278,0,0,0,54.806,145.267Z"/><circle class="a" cx="1.278" cy="1.278" r="1.278" transform="translate(67.928 142.711)"/><path class="a" d="M83.606,145.267a1.278,1.278,0,1,0-1.278-1.278A1.278,1.278,0,0,0,83.606,145.267Z"/><path class="a" d="M98.006,145.267a1.278,1.278,0,1,0-1.277-1.278A1.278,1.278,0,0,0,98.006,145.267Z"/><path class="a" d="M112.406,145.267a1.278,1.278,0,1,0-1.278-1.278A1.279,1.279,0,0,0,112.406,145.267Z"/><path class="a" d="M126.806,145.267a1.278,1.278,0,1,0-1.278-1.278A1.278,1.278,0,0,0,126.806,145.267Z"/><circle class="a" cx="1.278" cy="1.278" r="1.278" transform="translate(139.928 142.711)"/><path class="a" d="M155.606,145.267a1.278,1.278,0,1,0-1.278-1.278A1.278,1.278,0,0,0,155.606,145.267Z"/><path class="a" d="M170.006,145.267a1.278,1.278,0,1,0-1.277-1.278A1.278,1.278,0,0,0,170.006,145.267Z"/><path class="a" d="M184.406,145.267a1.278,1.278,0,1,0-1.278-1.278A1.279,1.279,0,0,0,184.406,145.267Z"/><path class="a" d="M198.806,145.267a1.278,1.278,0,1,0-1.278-1.278A1.278,1.278,0,0,0,198.806,145.267Z"/><circle class="a" cx="1.278" cy="1.278" r="1.278" transform="translate(211.928 142.711)"/><path class="a" d="M227.606,145.267a1.278,1.278,0,1,0-1.278-1.278A1.278,1.278,0,0,0,227.606,145.267Z"/><path class="a" d="M242.006,145.267a1.278,1.278,0,1,0-1.277-1.278A1.278,1.278,0,0,0,242.006,145.267Z"/><path class="a" d="M256.406,145.267a1.278,1.278,0,1,0-1.278-1.278A1.279,1.279,0,0,0,256.406,145.267Z"/><path class="a" d="M270.806,145.267a1.278,1.278,0,1,0-1.278-1.278A1.278,1.278,0,0,0,270.806,145.267Z"/><circle class="a" cx="1.278" cy="1.278" r="1.278" transform="translate(283.928 142.711)"/><path class="a" d="M-9.994,159.667a1.278,1.278,0,0,0,1.278-1.278,1.278,1.278,0,0,0-1.278-1.278,1.278,1.278,0,0,0-1.277,1.278A1.278,1.278,0,0,0-9.994,159.667Z"/><path class="a" d="M4.406,159.667a1.278,1.278,0,1,0-1.278-1.278A1.279,1.279,0,0,0,4.406,159.667Z"/><path class="a" d="M18.806,159.667a1.278,1.278,0,1,0-1.278-1.278A1.278,1.278,0,0,0,18.806,159.667Z"/><path class="a" d="M33.206,159.667a1.278,1.278,0,1,0-1.278-1.278A1.278,1.278,0,0,0,33.206,159.667Z"/><path class="a" d="M47.606,159.667a1.278,1.278,0,1,0-1.278-1.278A1.278,1.278,0,0,0,47.606,159.667Z"/><path class="a" d="M62.006,159.667a1.278,1.278,0,1,0-1.277-1.278A1.278,1.278,0,0,0,62.006,159.667Z"/><path class="a" d="M76.406,159.667a1.278,1.278,0,1,0-1.278-1.278A1.279,1.279,0,0,0,76.406,159.667Z"/><path class="a" d="M90.806,159.667a1.278,1.278,0,1,0-1.278-1.278A1.278,1.278,0,0,0,90.806,159.667Z"/><path class="a" d="M105.206,159.667a1.278,1.278,0,1,0-1.278-1.278A1.278,1.278,0,0,0,105.206,159.667Z"/><path class="a" d="M119.606,159.667a1.278,1.278,0,1,0-1.278-1.278A1.278,1.278,0,0,0,119.606,159.667Z"/><path class="a" d="M134.006,159.667a1.278,1.278,0,1,0-1.277-1.278A1.278,1.278,0,0,0,134.006,159.667Z"/><path class="a" d="M148.406,159.667a1.278,1.278,0,1,0-1.278-1.278A1.279,1.279,0,0,0,148.406,159.667Z"/><path class="a" d="M162.806,159.667a1.278,1.278,0,1,0-1.278-1.278A1.278,1.278,0,0,0,162.806,159.667Z"/><path class="a" d="M177.206,159.667a1.278,1.278,0,1,0-1.278-1.278A1.278,1.278,0,0,0,177.206,159.667Z"/><path class="a" d="M191.606,159.667a1.278,1.278,0,1,0-1.278-1.278A1.278,1.278,0,0,0,191.606,159.667Z"/><path class="a" d="M206.006,159.667a1.278,1.278,0,1,0-1.277-1.278A1.278,1.278,0,0,0,206.006,159.667Z"/><path class="a" d="M220.406,159.667a1.278,1.278,0,1,0-1.278-1.278A1.279,1.279,0,0,0,220.406,159.667Z"/><path class="a" d="M234.806,159.667a1.278,1.278,0,1,0-1.278-1.278A1.278,1.278,0,0,0,234.806,159.667Z"/><path class="a" d="M249.206,159.667a1.278,1.278,0,1,0-1.278-1.278A1.278,1.278,0,0,0,249.206,159.667Z"/><path class="a" d="M263.606,159.667a1.278,1.278,0,1,0-1.278-1.278A1.278,1.278,0,0,0,263.606,159.667Z"/><path class="a" d="M278.006,159.667a1.278,1.278,0,1,0-1.277-1.278A1.278,1.278,0,0,0,278.006,159.667Z"/><path class="a" d="M292.406,159.667a1.278,1.278,0,1,0-1.278-1.278A1.279,1.279,0,0,0,292.406,159.667Z"/><path class="a" d="M-17.194,174.067a1.278,1.278,0,0,0,1.278-1.278,1.278,1.278,0,0,0-1.278-1.278,1.278,1.278,0,0,0-1.278,1.278A1.278,1.278,0,0,0-17.194,174.067Z"/><path class="a" d="M-2.794,174.067a1.278,1.278,0,0,0,1.278-1.278,1.278,1.278,0,0,0-1.278-1.278,1.278,1.278,0,0,0-1.278,1.278A1.278,1.278,0,0,0-2.794,174.067Z"/><path class="a" d="M11.606,174.067a1.278,1.278,0,1,0-1.278-1.278A1.278,1.278,0,0,0,11.606,174.067Z"/><path class="a" d="M26.006,174.067a1.278,1.278,0,1,0-1.277-1.278A1.278,1.278,0,0,0,26.006,174.067Z"/><path class="a" d="M40.406,174.067a1.278,1.278,0,1,0-1.278-1.278A1.278,1.278,0,0,0,40.406,174.067Z"/><path class="a" d="M54.806,174.067a1.278,1.278,0,1,0-1.278-1.278A1.278,1.278,0,0,0,54.806,174.067Z"/><path class="a" d="M69.206,174.067a1.278,1.278,0,1,0-1.278-1.278A1.278,1.278,0,0,0,69.206,174.067Z"/><path class="a" d="M83.606,174.067a1.278,1.278,0,1,0-1.278-1.278A1.278,1.278,0,0,0,83.606,174.067Z"/><path class="a" d="M98.006,174.067a1.278,1.278,0,1,0-1.277-1.278A1.278,1.278,0,0,0,98.006,174.067Z"/><path class="a" d="M112.406,174.067a1.278,1.278,0,1,0-1.278-1.278A1.278,1.278,0,0,0,112.406,174.067Z"/><path class="a" d="M126.806,174.067a1.278,1.278,0,1,0-1.278-1.278A1.278,1.278,0,0,0,126.806,174.067Z"/><path class="a" d="M141.206,174.067a1.278,1.278,0,1,0-1.278-1.278A1.278,1.278,0,0,0,141.206,174.067Z"/><path class="a" d="M155.606,174.067a1.278,1.278,0,1,0-1.278-1.278A1.278,1.278,0,0,0,155.606,174.067Z"/><path class="a" d="M170.006,174.067a1.278,1.278,0,1,0-1.277-1.278A1.278,1.278,0,0,0,170.006,174.067Z"/><path class="a" d="M184.406,174.067a1.278,1.278,0,1,0-1.278-1.278A1.278,1.278,0,0,0,184.406,174.067Z"/><path class="a" d="M198.806,174.067a1.278,1.278,0,1,0-1.278-1.278A1.278,1.278,0,0,0,198.806,174.067Z"/><path class="a" d="M213.206,174.067a1.278,1.278,0,1,0-1.278-1.278A1.278,1.278,0,0,0,213.206,174.067Z"/><path class="a" d="M227.606,174.067a1.278,1.278,0,1,0-1.278-1.278A1.278,1.278,0,0,0,227.606,174.067Z"/><path class="a" d="M242.006,174.067a1.278,1.278,0,1,0-1.277-1.278A1.278,1.278,0,0,0,242.006,174.067Z"/><path class="a" d="M256.406,174.067a1.278,1.278,0,1,0-1.278-1.278A1.278,1.278,0,0,0,256.406,174.067Z"/><path class="a" d="M270.806,174.067a1.278,1.278,0,1,0-1.278-1.278A1.278,1.278,0,0,0,270.806,174.067Z"/><path class="a" d="M285.206,174.067a1.278,1.278,0,1,0-1.278-1.278A1.278,1.278,0,0,0,285.206,174.067Z"/><path class="a" d="M-9.994,188.466a1.277,1.277,0,0,0,1.278-1.277,1.278,1.278,0,0,0-1.278-1.278,1.278,1.278,0,0,0-1.277,1.278A1.277,1.277,0,0,0-9.994,188.466Z"/><path class="a" d="M4.406,188.466a1.278,1.278,0,1,0-1.278-1.277A1.278,1.278,0,0,0,4.406,188.466Z"/><path class="a" d="M18.806,188.466a1.278,1.278,0,1,0-1.278-1.277A1.277,1.277,0,0,0,18.806,188.466Z"/><path class="a" d="M33.206,188.466a1.278,1.278,0,1,0-1.278-1.277A1.277,1.277,0,0,0,33.206,188.466Z"/><path class="a" d="M47.606,188.466a1.278,1.278,0,1,0-1.278-1.277A1.277,1.277,0,0,0,47.606,188.466Z"/><path class="a" d="M62.006,188.466a1.278,1.278,0,1,0-1.277-1.277A1.277,1.277,0,0,0,62.006,188.466Z"/><path class="a" d="M76.406,188.466a1.278,1.278,0,1,0-1.278-1.277A1.278,1.278,0,0,0,76.406,188.466Z"/><path class="a" d="M90.806,188.466a1.278,1.278,0,1,0-1.278-1.277A1.277,1.277,0,0,0,90.806,188.466Z"/><path class="a" d="M105.206,188.466a1.278,1.278,0,1,0-1.278-1.277A1.277,1.277,0,0,0,105.206,188.466Z"/><path class="a" d="M119.606,188.466a1.278,1.278,0,1,0-1.278-1.277A1.277,1.277,0,0,0,119.606,188.466Z"/><path class="a" d="M134.006,188.466a1.278,1.278,0,1,0-1.277-1.277A1.277,1.277,0,0,0,134.006,188.466Z"/><path class="a" d="M148.406,188.466a1.278,1.278,0,1,0-1.278-1.277A1.278,1.278,0,0,0,148.406,188.466Z"/><path class="a" d="M162.806,188.466a1.278,1.278,0,1,0-1.278-1.277A1.277,1.277,0,0,0,162.806,188.466Z"/><path class="a" d="M177.206,188.466a1.278,1.278,0,1,0-1.278-1.277A1.277,1.277,0,0,0,177.206,188.466Z"/><path class="a" d="M191.606,188.466a1.278,1.278,0,1,0-1.278-1.277A1.277,1.277,0,0,0,191.606,188.466Z"/><path class="a" d="M206.006,188.466a1.278,1.278,0,1,0-1.277-1.277A1.277,1.277,0,0,0,206.006,188.466Z"/><path class="a" d="M220.406,188.466a1.278,1.278,0,1,0-1.278-1.277A1.278,1.278,0,0,0,220.406,188.466Z"/><path class="a" d="M234.806,188.466a1.278,1.278,0,1,0-1.278-1.277A1.277,1.277,0,0,0,234.806,188.466Z"/><path class="a" d="M249.206,188.466a1.278,1.278,0,1,0-1.278-1.277A1.277,1.277,0,0,0,249.206,188.466Z"/><path class="a" d="M263.606,188.466a1.278,1.278,0,1,0-1.278-1.277A1.277,1.277,0,0,0,263.606,188.466Z"/><path class="a" d="M278.006,188.466a1.278,1.278,0,1,0-1.277-1.277A1.277,1.277,0,0,0,278.006,188.466Z"/><path class="a" d="M292.406,188.466a1.278,1.278,0,1,0-1.278-1.277A1.278,1.278,0,0,0,292.406,188.466Z"/><path class="a" d="M-17.194,202.867a1.278,1.278,0,0,0,1.278-1.278,1.278,1.278,0,0,0-1.278-1.278,1.278,1.278,0,0,0-1.278,1.278A1.279,1.279,0,0,0-17.194,202.867Z"/><circle class="a" cx="1.278" cy="1.278" r="1.278" transform="translate(-4.072 200.311)"/><path class="a" d="M11.606,202.867a1.278,1.278,0,1,0-1.278-1.278A1.278,1.278,0,0,0,11.606,202.867Z"/><path class="a" d="M26.006,202.867a1.278,1.278,0,1,0-1.277-1.278A1.278,1.278,0,0,0,26.006,202.867Z"/><path class="a" d="M40.406,202.867a1.278,1.278,0,1,0-1.278-1.278A1.279,1.279,0,0,0,40.406,202.867Z"/><path class="a" d="M54.806,202.867a1.278,1.278,0,1,0-1.278-1.278A1.278,1.278,0,0,0,54.806,202.867Z"/><circle class="a" cx="1.278" cy="1.278" r="1.278" transform="translate(67.928 200.311)"/><path class="a" d="M83.606,202.867a1.278,1.278,0,1,0-1.278-1.278A1.278,1.278,0,0,0,83.606,202.867Z"/><path class="a" d="M98.006,202.867a1.278,1.278,0,1,0-1.277-1.278A1.278,1.278,0,0,0,98.006,202.867Z"/><path class="a" d="M112.406,202.867a1.278,1.278,0,1,0-1.278-1.278A1.279,1.279,0,0,0,112.406,202.867Z"/><path class="a" d="M126.806,202.867a1.278,1.278,0,1,0-1.278-1.278A1.278,1.278,0,0,0,126.806,202.867Z"/><circle class="a" cx="1.278" cy="1.278" r="1.278" transform="translate(139.928 200.311)"/><path class="a" d="M155.606,202.867a1.278,1.278,0,1,0-1.278-1.278A1.278,1.278,0,0,0,155.606,202.867Z"/><path class="a" d="M170.006,202.867a1.278,1.278,0,1,0-1.277-1.278A1.278,1.278,0,0,0,170.006,202.867Z"/><path class="a" d="M184.406,202.867a1.278,1.278,0,1,0-1.278-1.278A1.279,1.279,0,0,0,184.406,202.867Z"/><path class="a" d="M198.806,202.867a1.278,1.278,0,1,0-1.278-1.278A1.278,1.278,0,0,0,198.806,202.867Z"/><circle class="a" cx="1.278" cy="1.278" r="1.278" transform="translate(211.928 200.311)"/><path class="a" d="M227.606,202.867a1.278,1.278,0,1,0-1.278-1.278A1.278,1.278,0,0,0,227.606,202.867Z"/><path class="a" d="M242.006,202.867a1.278,1.278,0,1,0-1.277-1.278A1.278,1.278,0,0,0,242.006,202.867Z"/><path class="a" d="M256.406,202.867a1.278,1.278,0,1,0-1.278-1.278A1.279,1.279,0,0,0,256.406,202.867Z"/><path class="a" d="M270.806,202.867a1.278,1.278,0,1,0-1.278-1.278A1.278,1.278,0,0,0,270.806,202.867Z"/><circle class="a" cx="1.278" cy="1.278" r="1.278" transform="translate(283.928 200.311)"/><path class="a" d="M-9.994,217.267a1.278,1.278,0,0,0,1.278-1.278,1.278,1.278,0,0,0-1.278-1.278,1.278,1.278,0,0,0-1.277,1.278A1.278,1.278,0,0,0-9.994,217.267Z"/><path class="a" d="M4.406,217.267a1.278,1.278,0,1,0-1.278-1.278A1.279,1.279,0,0,0,4.406,217.267Z"/><path class="a" d="M18.806,217.267a1.278,1.278,0,1,0-1.278-1.278A1.278,1.278,0,0,0,18.806,217.267Z"/><circle class="a" cx="1.278" cy="1.278" r="1.278" transform="translate(31.928 214.711)"/><path class="a" d="M47.606,217.267a1.278,1.278,0,1,0-1.278-1.278A1.278,1.278,0,0,0,47.606,217.267Z"/><path class="a" d="M62.006,217.267a1.278,1.278,0,1,0-1.277-1.278A1.278,1.278,0,0,0,62.006,217.267Z"/><path class="a" d="M76.406,217.267a1.278,1.278,0,1,0-1.278-1.278A1.279,1.279,0,0,0,76.406,217.267Z"/><path class="a" d="M90.806,217.267a1.278,1.278,0,1,0-1.278-1.278A1.278,1.278,0,0,0,90.806,217.267Z"/><circle class="a" cx="1.278" cy="1.278" r="1.278" transform="translate(103.928 214.711)"/><path class="a" d="M119.606,217.267a1.278,1.278,0,1,0-1.278-1.278A1.278,1.278,0,0,0,119.606,217.267Z"/><path class="a" d="M134.006,217.267a1.278,1.278,0,1,0-1.277-1.278A1.278,1.278,0,0,0,134.006,217.267Z"/><path class="a" d="M148.406,217.267a1.278,1.278,0,1,0-1.278-1.278A1.279,1.279,0,0,0,148.406,217.267Z"/><path class="a" d="M162.806,217.267a1.278,1.278,0,1,0-1.278-1.278A1.278,1.278,0,0,0,162.806,217.267Z"/><circle class="a" cx="1.278" cy="1.278" r="1.278" transform="translate(175.928 214.711)"/><path class="a" d="M191.606,217.267a1.278,1.278,0,1,0-1.278-1.278A1.278,1.278,0,0,0,191.606,217.267Z"/><path class="a" d="M206.006,217.267a1.278,1.278,0,1,0-1.277-1.278A1.278,1.278,0,0,0,206.006,217.267Z"/><path class="a" d="M220.406,217.267a1.278,1.278,0,1,0-1.278-1.278A1.279,1.279,0,0,0,220.406,217.267Z"/><path class="a" d="M234.806,217.267a1.278,1.278,0,1,0-1.278-1.278A1.278,1.278,0,0,0,234.806,217.267Z"/><circle class="a" cx="1.278" cy="1.278" r="1.278" transform="translate(247.928 214.711)"/><path class="a" d="M263.606,217.267a1.278,1.278,0,1,0-1.278-1.278A1.278,1.278,0,0,0,263.606,217.267Z"/><path class="a" d="M278.006,217.267a1.278,1.278,0,1,0-1.277-1.278A1.278,1.278,0,0,0,278.006,217.267Z"/><path class="a" d="M292.406,217.267a1.278,1.278,0,1,0-1.278-1.278A1.279,1.279,0,0,0,292.406,217.267Z"/><path class="a" d="M-17.194,231.667a1.278,1.278,0,0,0,1.278-1.278,1.278,1.278,0,0,0-1.278-1.278,1.278,1.278,0,0,0-1.278,1.278A1.279,1.279,0,0,0-17.194,231.667Z"/><path class="a" d="M-2.794,231.667a1.278,1.278,0,0,0,1.278-1.278,1.278,1.278,0,0,0-1.278-1.278,1.278,1.278,0,0,0-1.278,1.278A1.278,1.278,0,0,0-2.794,231.667Z"/><path class="a" d="M11.606,231.667a1.278,1.278,0,1,0-1.278-1.278A1.278,1.278,0,0,0,11.606,231.667Z"/><path class="a" d="M26.006,231.667a1.278,1.278,0,1,0-1.277-1.278A1.278,1.278,0,0,0,26.006,231.667Z"/><path class="a" d="M40.406,231.667a1.278,1.278,0,1,0-1.278-1.278A1.279,1.279,0,0,0,40.406,231.667Z"/><path class="a" d="M54.806,231.667a1.278,1.278,0,1,0-1.278-1.278A1.278,1.278,0,0,0,54.806,231.667Z"/><path class="a" d="M69.206,231.667a1.278,1.278,0,1,0-1.278-1.278A1.278,1.278,0,0,0,69.206,231.667Z"/><path class="a" d="M83.606,231.667a1.278,1.278,0,1,0-1.278-1.278A1.278,1.278,0,0,0,83.606,231.667Z"/><path class="a" d="M98.006,231.667a1.278,1.278,0,1,0-1.277-1.278A1.278,1.278,0,0,0,98.006,231.667Z"/><path class="a" d="M112.406,231.667a1.278,1.278,0,1,0-1.278-1.278A1.279,1.279,0,0,0,112.406,231.667Z"/><path class="a" d="M126.806,231.667a1.278,1.278,0,1,0-1.278-1.278A1.278,1.278,0,0,0,126.806,231.667Z"/><path class="a" d="M141.206,231.667a1.278,1.278,0,1,0-1.278-1.278A1.278,1.278,0,0,0,141.206,231.667Z"/><path class="a" d="M155.606,231.667a1.278,1.278,0,1,0-1.278-1.278A1.278,1.278,0,0,0,155.606,231.667Z"/><path class="a" d="M170.006,231.667a1.278,1.278,0,1,0-1.277-1.278A1.278,1.278,0,0,0,170.006,231.667Z"/><path class="a" d="M184.406,231.667a1.278,1.278,0,1,0-1.278-1.278A1.279,1.279,0,0,0,184.406,231.667Z"/><path class="a" d="M198.806,231.667a1.278,1.278,0,1,0-1.278-1.278A1.278,1.278,0,0,0,198.806,231.667Z"/><path class="a" d="M213.206,231.667a1.278,1.278,0,1,0-1.278-1.278A1.278,1.278,0,0,0,213.206,231.667Z"/><path class="a" d="M227.606,231.667a1.278,1.278,0,1,0-1.278-1.278A1.278,1.278,0,0,0,227.606,231.667Z"/><path class="a" d="M242.006,231.667a1.278,1.278,0,1,0-1.277-1.278A1.278,1.278,0,0,0,242.006,231.667Z"/><path class="a" d="M256.406,231.667a1.278,1.278,0,1,0-1.278-1.278A1.279,1.279,0,0,0,256.406,231.667Z"/><path class="a" d="M270.806,231.667a1.278,1.278,0,1,0-1.278-1.278A1.278,1.278,0,0,0,270.806,231.667Z"/><path class="a" d="M285.206,231.667a1.278,1.278,0,1,0-1.278-1.278A1.278,1.278,0,0,0,285.206,231.667Z"/><path class="a" d="M-9.994,246.067a1.278,1.278,0,0,0,1.278-1.278,1.278,1.278,0,0,0-1.278-1.278,1.278,1.278,0,0,0-1.277,1.278A1.278,1.278,0,0,0-9.994,246.067Z"/><path class="a" d="M4.406,246.067a1.278,1.278,0,1,0-1.278-1.278A1.278,1.278,0,0,0,4.406,246.067Z"/><path class="a" d="M18.806,246.067a1.278,1.278,0,1,0-1.278-1.278A1.278,1.278,0,0,0,18.806,246.067Z"/><path class="a" d="M33.206,246.067a1.278,1.278,0,1,0-1.278-1.278A1.278,1.278,0,0,0,33.206,246.067Z"/><path class="a" d="M47.606,246.067a1.278,1.278,0,1,0-1.278-1.278A1.278,1.278,0,0,0,47.606,246.067Z"/><path class="a" d="M62.006,246.067a1.278,1.278,0,1,0-1.277-1.278A1.278,1.278,0,0,0,62.006,246.067Z"/><path class="a" d="M76.406,246.067a1.278,1.278,0,1,0-1.278-1.278A1.278,1.278,0,0,0,76.406,246.067Z"/><path class="a" d="M90.806,246.067a1.278,1.278,0,1,0-1.278-1.278A1.278,1.278,0,0,0,90.806,246.067Z"/><path class="a" d="M105.206,246.067a1.278,1.278,0,1,0-1.278-1.278A1.278,1.278,0,0,0,105.206,246.067Z"/><path class="a" d="M119.606,246.067a1.278,1.278,0,1,0-1.278-1.278A1.278,1.278,0,0,0,119.606,246.067Z"/><path class="a" d="M134.006,246.067a1.278,1.278,0,1,0-1.277-1.278A1.278,1.278,0,0,0,134.006,246.067Z"/><path class="a" d="M148.406,246.067a1.278,1.278,0,1,0-1.278-1.278A1.278,1.278,0,0,0,148.406,246.067Z"/><path class="a" d="M162.806,246.067a1.278,1.278,0,1,0-1.278-1.278A1.278,1.278,0,0,0,162.806,246.067Z"/><path class="a" d="M177.206,246.067a1.278,1.278,0,1,0-1.278-1.278A1.278,1.278,0,0,0,177.206,246.067Z"/><path class="a" d="M191.606,246.067a1.278,1.278,0,1,0-1.278-1.278A1.278,1.278,0,0,0,191.606,246.067Z"/><path class="a" d="M206.006,246.067a1.278,1.278,0,1,0-1.277-1.278A1.278,1.278,0,0,0,206.006,246.067Z"/><path class="a" d="M220.406,246.067a1.278,1.278,0,1,0-1.278-1.278A1.278,1.278,0,0,0,220.406,246.067Z"/><path class="a" d="M234.806,246.067a1.278,1.278,0,1,0-1.278-1.278A1.278,1.278,0,0,0,234.806,246.067Z"/><path class="a" d="M249.206,246.067a1.278,1.278,0,1,0-1.278-1.278A1.278,1.278,0,0,0,249.206,246.067Z"/><path class="a" d="M263.606,246.067a1.278,1.278,0,1,0-1.278-1.278A1.278,1.278,0,0,0,263.606,246.067Z"/><path class="a" d="M278.006,246.067a1.278,1.278,0,1,0-1.277-1.278A1.278,1.278,0,0,0,278.006,246.067Z"/><path class="a" d="M292.406,246.067a1.278,1.278,0,1,0-1.278-1.278A1.278,1.278,0,0,0,292.406,246.067Z"/><path class="a" d="M-17.194,260.466a1.277,1.277,0,0,0,1.278-1.277,1.278,1.278,0,0,0-1.278-1.278,1.278,1.278,0,0,0-1.278,1.278A1.278,1.278,0,0,0-17.194,260.466Z"/><path class="a" d="M-2.794,260.466a1.277,1.277,0,0,0,1.278-1.277,1.278,1.278,0,0,0-1.278-1.278,1.278,1.278,0,0,0-1.278,1.278A1.277,1.277,0,0,0-2.794,260.466Z"/><path class="a" d="M11.606,260.466a1.277,1.277,0,1,0-1.278-1.277A1.277,1.277,0,0,0,11.606,260.466Z"/><path class="a" d="M26.006,260.466a1.277,1.277,0,1,0-1.277-1.277A1.277,1.277,0,0,0,26.006,260.466Z"/><path class="a" d="M40.406,260.466a1.277,1.277,0,1,0-1.278-1.277A1.278,1.278,0,0,0,40.406,260.466Z"/><path class="a" d="M54.806,260.466a1.277,1.277,0,1,0-1.278-1.277A1.277,1.277,0,0,0,54.806,260.466Z"/><path class="a" d="M69.206,260.466a1.277,1.277,0,1,0-1.278-1.277A1.277,1.277,0,0,0,69.206,260.466Z"/><path class="a" d="M83.606,260.466a1.277,1.277,0,1,0-1.278-1.277A1.277,1.277,0,0,0,83.606,260.466Z"/><path class="a" d="M98.006,260.466a1.277,1.277,0,1,0-1.277-1.277A1.277,1.277,0,0,0,98.006,260.466Z"/><path class="a" d="M112.406,260.466a1.277,1.277,0,1,0-1.278-1.277A1.278,1.278,0,0,0,112.406,260.466Z"/><path class="a" d="M126.806,260.466a1.277,1.277,0,1,0-1.278-1.277A1.277,1.277,0,0,0,126.806,260.466Z"/><path class="a" d="M141.206,260.466a1.277,1.277,0,1,0-1.278-1.277A1.277,1.277,0,0,0,141.206,260.466Z"/><path class="a" d="M155.606,260.466a1.277,1.277,0,1,0-1.278-1.277A1.277,1.277,0,0,0,155.606,260.466Z"/><path class="a" d="M170.006,260.466a1.277,1.277,0,1,0-1.277-1.277A1.277,1.277,0,0,0,170.006,260.466Z"/><path class="a" d="M184.406,260.466a1.277,1.277,0,1,0-1.278-1.277A1.278,1.278,0,0,0,184.406,260.466Z"/><path class="a" d="M198.806,260.466a1.277,1.277,0,1,0-1.278-1.277A1.277,1.277,0,0,0,198.806,260.466Z"/><path class="a" d="M213.206,260.466a1.277,1.277,0,1,0-1.278-1.277A1.277,1.277,0,0,0,213.206,260.466Z"/><path class="a" d="M227.606,260.466a1.277,1.277,0,1,0-1.278-1.277A1.277,1.277,0,0,0,227.606,260.466Z"/><path class="a" d="M242.006,260.466a1.277,1.277,0,1,0-1.277-1.277A1.277,1.277,0,0,0,242.006,260.466Z"/><path class="a" d="M256.406,260.466a1.277,1.277,0,1,0-1.278-1.277A1.278,1.278,0,0,0,256.406,260.466Z"/><path class="a" d="M270.806,260.466a1.277,1.277,0,1,0-1.278-1.277A1.277,1.277,0,0,0,270.806,260.466Z"/><path class="a" d="M285.206,260.466a1.277,1.277,0,1,0-1.278-1.277A1.277,1.277,0,0,0,285.206,260.466Z"/><path class="a" d="M-9.994,274.867a1.278,1.278,0,0,0,1.278-1.278,1.278,1.278,0,0,0-1.278-1.278,1.278,1.278,0,0,0-1.277,1.278A1.278,1.278,0,0,0-9.994,274.867Z"/><path class="a" d="M4.406,274.867a1.278,1.278,0,1,0-1.278-1.278A1.278,1.278,0,0,0,4.406,274.867Z"/><path class="a" d="M18.806,274.867a1.278,1.278,0,1,0-1.278-1.278A1.278,1.278,0,0,0,18.806,274.867Z"/><circle class="a" cx="1.278" cy="1.278" r="1.278" transform="translate(31.928 272.311)"/><path class="a" d="M47.606,274.867a1.278,1.278,0,1,0-1.278-1.278A1.278,1.278,0,0,0,47.606,274.867Z"/><path class="a" d="M62.006,274.867a1.278,1.278,0,1,0-1.277-1.278A1.278,1.278,0,0,0,62.006,274.867Z"/><path class="a" d="M76.406,274.867a1.278,1.278,0,1,0-1.278-1.278A1.278,1.278,0,0,0,76.406,274.867Z"/><path class="a" d="M90.806,274.867a1.278,1.278,0,1,0-1.278-1.278A1.278,1.278,0,0,0,90.806,274.867Z"/><circle class="a" cx="1.278" cy="1.278" r="1.278" transform="translate(103.928 272.311)"/><path class="a" d="M119.606,274.867a1.278,1.278,0,1,0-1.278-1.278A1.278,1.278,0,0,0,119.606,274.867Z"/><path class="a" d="M134.006,274.867a1.278,1.278,0,1,0-1.277-1.278A1.278,1.278,0,0,0,134.006,274.867Z"/><path class="a" d="M148.406,274.867a1.278,1.278,0,1,0-1.278-1.278A1.278,1.278,0,0,0,148.406,274.867Z"/><path class="a" d="M162.806,274.867a1.278,1.278,0,1,0-1.278-1.278A1.278,1.278,0,0,0,162.806,274.867Z"/><circle class="a" cx="1.278" cy="1.278" r="1.278" transform="translate(175.928 272.311)"/><path class="a" d="M191.606,274.867a1.278,1.278,0,1,0-1.278-1.278A1.278,1.278,0,0,0,191.606,274.867Z"/><path class="a" d="M206.006,274.867a1.278,1.278,0,1,0-1.277-1.278A1.278,1.278,0,0,0,206.006,274.867Z"/><path class="a" d="M220.406,274.867a1.278,1.278,0,1,0-1.278-1.278A1.278,1.278,0,0,0,220.406,274.867Z"/><path class="a" d="M234.806,274.867a1.278,1.278,0,1,0-1.278-1.278A1.278,1.278,0,0,0,234.806,274.867Z"/><circle class="a" cx="1.278" cy="1.278" r="1.278" transform="translate(247.928 272.311)"/><path class="a" d="M263.606,274.867a1.278,1.278,0,1,0-1.278-1.278A1.278,1.278,0,0,0,263.606,274.867Z"/><path class="a" d="M278.006,274.867a1.278,1.278,0,1,0-1.277-1.278A1.278,1.278,0,0,0,278.006,274.867Z"/><path class="a" d="M292.406,274.867a1.278,1.278,0,1,0-1.278-1.278A1.278,1.278,0,0,0,292.406,274.867Z"/><path class="a" d="M-17.194,289.267a1.278,1.278,0,0,0,1.278-1.278,1.278,1.278,0,0,0-1.278-1.278,1.278,1.278,0,0,0-1.278,1.278A1.279,1.279,0,0,0-17.194,289.267Z"/><circle class="a" cx="1.278" cy="1.278" r="1.278" transform="translate(-4.072 286.711)"/><path class="a" d="M11.606,289.267a1.278,1.278,0,1,0-1.278-1.278A1.278,1.278,0,0,0,11.606,289.267Z"/><path class="a" d="M26.006,289.267a1.278,1.278,0,1,0-1.277-1.278A1.278,1.278,0,0,0,26.006,289.267Z"/><path class="a" d="M40.406,289.267a1.278,1.278,0,1,0-1.278-1.278A1.279,1.279,0,0,0,40.406,289.267Z"/><path class="a" d="M54.806,289.267a1.278,1.278,0,1,0-1.278-1.278A1.278,1.278,0,0,0,54.806,289.267Z"/><circle class="a" cx="1.278" cy="1.278" r="1.278" transform="translate(67.928 286.711)"/><path class="a" d="M83.606,289.267a1.278,1.278,0,1,0-1.278-1.278A1.278,1.278,0,0,0,83.606,289.267Z"/><path class="a" d="M98.006,289.267a1.278,1.278,0,1,0-1.277-1.278A1.278,1.278,0,0,0,98.006,289.267Z"/><path class="a" d="M112.406,289.267a1.278,1.278,0,1,0-1.278-1.278A1.279,1.279,0,0,0,112.406,289.267Z"/><path class="a" d="M126.806,289.267a1.278,1.278,0,1,0-1.278-1.278A1.278,1.278,0,0,0,126.806,289.267Z"/><circle class="a" cx="1.278" cy="1.278" r="1.278" transform="translate(139.928 286.711)"/><path class="a" d="M155.606,289.267a1.278,1.278,0,1,0-1.278-1.278A1.278,1.278,0,0,0,155.606,289.267Z"/><path class="a" d="M170.006,289.267a1.278,1.278,0,1,0-1.277-1.278A1.278,1.278,0,0,0,170.006,289.267Z"/><path class="a" d="M184.406,289.267a1.278,1.278,0,1,0-1.278-1.278A1.279,1.279,0,0,0,184.406,289.267Z"/><path class="a" d="M198.806,289.267a1.278,1.278,0,1,0-1.278-1.278A1.278,1.278,0,0,0,198.806,289.267Z"/><circle class="a" cx="1.278" cy="1.278" r="1.278" transform="translate(211.928 286.711)"/><path class="a" d="M227.606,289.267a1.278,1.278,0,1,0-1.278-1.278A1.278,1.278,0,0,0,227.606,289.267Z"/><path class="a" d="M242.006,289.267a1.278,1.278,0,1,0-1.277-1.278A1.278,1.278,0,0,0,242.006,289.267Z"/><path class="a" d="M256.406,289.267a1.278,1.278,0,1,0-1.278-1.278A1.279,1.279,0,0,0,256.406,289.267Z"/><path class="a" d="M270.806,289.267a1.278,1.278,0,1,0-1.278-1.278A1.278,1.278,0,0,0,270.806,289.267Z"/><circle class="a" cx="1.278" cy="1.278" r="1.278" transform="translate(283.928 286.711)"/></g></g></svg>